<?xml version="1.0" encoding="UTF-8"?>
<svg xmlns="http://www.w3.org/2000/svg" aria-hidden="true" style="position:absolute;width:0;height:0;overflow:hidden">
      <path d="M2.454-.033c.142.001.284-.001.425-.003h.272l.127-.002c.227.004.324.031.503.175.126.16.175.234.175.437-.113.303-.113.303-.268.411-.181.065-.338.061-.53.06l-.235.002h-.368c-.547-.021-.547-.021-1.026.204a1.557 1.557 0 0 0-.289.417l-.052.11c-.09.25-.107.492-.111.757l-.003.212-.003.227-.004.234-.009.614-.009.627-.018 1.229.192-.007.711-.024.306-.011.443-.014.136-.006c.74-.02.74-.02 1 .196.245.285.261.536.264.895l.001.136.002.284.004.29.004.419.003.13c-.001.297-.068.465-.257.693-.184.092-.374.092-.573.057-.154-.125-.256-.224-.344-.401a7.576 7.576 0 0 1-.006-.337v-.183l.002-.233.004-.738-1.892-.057v18.409h1.892l-.01-.875c-.003-.581-.003-.581.125-.846a.824.824 0 0 1 .455-.201c.249.041.342.137.52.315.068.204.068.391.069.603l.001.128.001.268.004.408.001.261.002.122a1.122 1.122 0 0 1-.279.78c-.16.127-.314.133-.509.132H3.15l-.165-.001h-.169l-.535-.002-.362-.001-.889-.003a155.89 155.89 0 0 0 .016 1.291c.008.998.116 1.862.83 2.624.67.629 1.396.754 2.29.771l.763.018v-2.409l-.344-.172c-.156-.18-.228-.28-.233-.52.076-.21.177-.313.348-.455a1.45 1.45 0 0 1 .503-.067l.206-.002.223-.001.229-.001.479-.001.613-.003.586-.002.222-.002.207.001.182-.001a.85.85 0 0 1 .451.193c.143.214.141.32.115.573-.103.158-.175.26-.344.344-.157.01-.312.016-.469.02l-.141.004-.295.008a66.28 66.28 0 0 0-.452.013l-.287.008-.137.004c-.187.004-.333.003-.512-.057v2.523h5.505l-.057-2.466h-.573c-.241-.043-.362-.078-.541-.244-.11-.193-.13-.283-.09-.502.12-.196.236-.327.459-.401a5.13 5.13 0 0 1 .278-.008l.175-.001h.192l.204-.001.561-.001.605-.001 1.461-.002.688-.001 2.287-.002h.743c.797 0 1.593-.002 2.39-.004l2.454-.003 1.378-.002c.391-.001.782-.002 1.173-.001l.598-.001a70.2 70.2 0 0 1 .649 0l.19-.002c.38.003.625.056.949.259.178.212.194.384.196.656l.003.223v.239l.001.247.001.517c0 .22.001.441.004.661.002.17.002.34.001.51l.002.244c.008.713.008.713-.174.939-.233.193-.355.188-.656.188H26.594l-.3.001-.829.001-.893.001-1.954.001-1.22.001-3.377.001h-1.096a4372.964 4372.964 0 0 1-7.151.005l-2.034.001-1.733.001-.884.001h-.81l-.292.001c-1.082.005-2.015-.223-2.811-.991l-.233-.236-.116-.11c-.234-.239-.383-.512-.533-.807l-.059-.116a2.752 2.752 0 0 1-.282-1.281l-.001-.14v-.463l-.001-.336-.001-.922-.002-.995-.002-2.175-.001-1.359-.002-3.762V17.23c0-1.269-.001-2.539-.003-3.808-.002-1.427-.004-2.853-.004-4.28l-.002-2.266c-.001-.643-.002-1.286-.001-1.929l-.001-.984v-.902l-.001-.325c-.006-.884.121-1.598.76-2.26.519-.483 1.052-.516 1.73-.51zm10.22 28.477a23.565 23.565 0 0 0-.065 1.616l-.001.152c0 .265.021.489.065.755h3.441l.004-1.229.002-.389v-.303l.001-.16V28.602c.004-.102.004-.102-.064-.158a5.587 5.587 0 0 0-.317-.006h-.205l-.223.001h-.227l-.599.001-.611.001-1.2.003zm4.53 0v2.523h3.498l.004-1.229.002-.389v-.303l.001-.16V28.602c.004-.102.004-.102-.064-.158a5.764 5.764 0 0 0-.322-.006h-.209l-.227.001h-.231l-.61.001-.622.001-1.22.003zm4.531.058a10.2 10.2 0 0 0-.008.429v1.221l.001.121v.104c.011.198.039.393.065.59l1.971.003.915.001.882.001.337.001h.471l.142.001c.21.02.21.02.385-.064.005-.178.007-.355.006-.532v-.162l-.002-.514-.001-.347-.003-.853c-.253-.063-.501-.065-.761-.065h-4.032c-.2-.017-.2-.017-.367.065z" fill="#2ea9fc" />
      <path d="m5.668-.015.122-.001h.408l.295-.001.812-.001.875-.001L9.895-.02l1.395-.001c1.318-.001 2.636-.002 3.954-.001h.431c1.153 0 2.305-.001 3.458-.003 1.183-.002 2.367-.002 3.55-.002.664 0 1.329 0 1.993-.002l1.698-.001.866-.001h.794l.286-.001c1.105-.007 2.086.259 2.935 1.004l.118.101c.592.547.955 1.286 1.087 2.078.005.145.008.288.008.433V4.152l.001.316.001.87.001.937.002 2.265.001 1.067.002 3.547v1.036c0 1.235.002 2.47.004 3.705.002 1.306.003 2.613.003 3.919l.002 2.136c.001.606.002 1.213.001 1.819l.001.928a120.7 120.7 0 0 1 .001 1.157c.008 1.334-.348 2.416-1.287 3.399-.503.478-1.184.776-1.879.763-.191-.027-.291-.108-.419-.248-.083-.166-.079-.275-.057-.459.207-.256.422-.352.728-.448.651-.226 1.121-.601 1.452-1.215.23-.547.351-1.031.362-1.619l.004-.153.011-.482.008-.328.018-.801-.098.002c-.337.006-.674.011-1.01.014a49.242 49.242 0 0 1-.919.012l-.169.005c-.257 0-.441-.003-.647-.167-.349-.382-.271-.893-.268-1.381l-.001-.223c.001-.375.006-.715.13-1.071.164-.15.268-.17.487-.197.233.029.323.09.487.254.079.159.064.287.063.465v.19l-.002.242-.004.767h1.95V6.766h-1.95l.015 1.031.001.195.003.199a.826.826 0 0 1-.192.467c-.2.1-.413.098-.631.057-.182-.135-.273-.302-.344-.516-.012-.249-.011-.498-.011-.747l-.002-.367c-.005-.976-.005-.976.266-1.276.248-.196.512-.169.816-.161l.176.001c.185.002.369.005.554.009l.377.004c.307.003.614.008.921.014a146.99 146.99 0 0 0-.016-1.258c-.008-.957-.103-1.787-.778-2.529-.638-.597-1.391-.792-2.241-.834l-.136-.007a35.788 35.788 0 0 0-.327-.017l.002.115c.008.395.013.791.017 1.186l.007.442c.004.212.006.424.008.637l.005.199c0 .357-.027.58-.275.845-.342.234-.724.205-1.12.203l-.205.001h-3.747L20 4.658H11.98l-.651-.001-.192.001-.176-.001h-.152c-.255-.026-.395-.091-.564-.283-.115-.235-.114-.343-.036-.591.287-.229.287-.229 1.376-.229V1.031H6.08v2.523c.667-.009.667-.009 1.333-.021l.252-.002.131-.004c.212 0 .337.018.519.13.162.173.174.293.174.527-.1.244-.227.341-.459.459-.15.022-.15.022-.311.022l-.184.002-.197-.001h-.205l-.428-.001c-.218-.001-.436 0-.654.001l-.416-.001-.197.001c-.382-.003-.66-.027-.955-.293a.89.89 0 0 1-.065-.591c.097-.143.097-.143.229-.229.152-.005.152-.005.287 0l-.001-.118c-.004-.405-.006-.809-.008-1.214A141.275 141.275 0 0 1 4.914.912V.721L4.913.553a.858.858 0 0 1 .193-.441c.211-.141.313-.129.564-.129zm6.949 1.105c-.006.158-.008.314-.008.472v1.343l.001.132v.115c.007.146.007.146.065.404h3.441V1.033l-1.342-.003-.625-.001-.601-.001-.342-.001h-.394c-.135-.009-.135-.009-.195.064zm4.587-.058v2.523h3.498V1.032h-3.498zm4.531.058c-.006.168-.008.334-.008.501v1.425c.001.194.004.354.065.54l1.971.003.915.001.882.001.337.001h.471l.142.001c.21.02.21.02.385-.064.005-.077.007-.155.006-.233v-.15l-.001-.163v-.166l-.002-.526-.001-.356-.003-.874-1.993-.003-.926-.001-.892-.001-.341-.001h-.476l-.144-.001c-.211-.02-.211-.02-.388.064z" fill="#2ea9fc"/>
      <path d="M16.303 5.955c2.013-.051 4.283.569 5.833 1.902.158.175.224.252.262.487-.041.254-.115.334-.319.487-.133.061-.133.061-.287.057a3.048 3.048 0 0 1-.746-.444c-1.655-1.228-3.889-1.544-5.889-1.272-2.293.354-4.306 1.641-5.677 3.502-.666.937-1.117 1.977-1.395 3.089l-.031.123c-.499 2.07-.07 4.407 1.028 6.213.25.396.539.76.838 1.119l.12.147c.288.34.618.613.97.886l.165.131c1.891 1.468 4.264 1.954 6.618 1.666a8.173 8.173 0 0 0 1.052-.232c1.073-.299 2.092-.79 2.947-1.508l.202-.165c1.642-1.359 2.763-3.308 3-5.442.067-.906.05-1.824-.163-2.709l-.029-.123c-.174-.716-.471-1.353-.844-1.985-.112-.203-.137-.302-.102-.53a.855.855 0 0 1 .272-.366c.203-.056.328-.038.53.021 1.008.879 1.376 2.797 1.483 4.064.172 2.529-.704 4.953-2.352 6.86-.733.827-1.499 1.486-2.457 2.036l-.106.062c-1.043.614-2.201.955-3.393 1.142l-.209.033c-.362.043-.728.038-1.092.038h-.119a9.938 9.938 0 0 1-2.021-.186l-.134-.027c-2.302-.485-4.328-1.879-5.715-3.758l-.075-.101c-1.462-2.003-1.995-4.598-1.616-7.035.331-1.888 1.185-3.668 2.521-5.047l.179-.188c1.779-1.882 4.188-2.826 6.749-2.951z" fill="#2ea9fc"/>
      <path d="m16.412 7.839.22.001c.569.007 1.109.051 1.661.189l.116.029c.874.227 2.107.641 2.637 1.405.032.201.032.201 0 .401a.863.863 0 0 1-.448.348c-.303-.006-.518-.156-.77-.313-1.47-.913-3.203-1.15-4.881-.776-1.805.463-3.324 1.51-4.282 3.121a7.138 7.138 0 0 0-.687 1.693l-.059.208c-.412 1.758-.071 3.599.862 5.125.162.238.335.465.516.688l.121.15c.808.949 1.916 1.548 3.09 1.914l.121.039c1.64.511 3.534.224 5.039-.557.41-.227.789-.5 1.148-.801l.137-.114c1.244-1.072 2.083-2.593 2.214-4.245.009-.215.011-.43.011-.645v-.177a5.4 5.4 0 0 0-.103-1.053c-.046-.271-.003-.463.124-.702.172-.146.266-.149.484-.145a.676.676 0 0 1 .344.199c.624 1.18.299 3.02-.071 4.227-.373 1.13-1.013 2.077-1.821 2.941l-.147.158c-.898.936-2.112 1.603-3.358 1.946l-.19.052a7.363 7.363 0 0 1-1.742.264 8.049 8.049 0 0 1-5.688-2.134l-.141-.128c-1.404-1.343-2.179-3.281-2.268-5.205l-.007-.133c-.057-2.109.822-4.083 2.244-5.601l.123-.135c.924-.974 2.143-1.586 3.411-1.972l.112-.035c.633-.183 1.272-.23 1.928-.227z" fill="#2ea9fc"/>
      <path d="M14.452 12.272c.163.067.311.154.462.244l.136.078.287.166a141.61 141.61 0 0 1 2.212 1.276c.285.167.571.332.86.494l.166.093.31.172c.593.333.593.333.727.652a.97.97 0 0 1-.172.552 2.12 2.12 0 0 1-.427.269l-.265.147-.14.077c-.245.137-.484.283-.724.428l-.294.177-.141.085-.544.326-.099.059-.705.423-.386.231-.185.111c-.292.175-.583.351-.869.538a.873.873 0 0 1-.498.111c-.208-.098-.315-.165-.41-.377-.062-.249-.065-.479-.063-.735l-.001-.161v-.891l.001-.766c.001-.327 0-.654 0-.981V13.952l.001-.506-.001-.15c.002-.348.013-.67.259-.937.194-.111.28-.114.502-.09zM20.473 18.065c.187.164.273.271.319.516-.041.217-.129.341-.262.516l-.093.136-.079.093h-.115l-.034.097c-.113.186-.274.293-.45.416l-.108.076c-.499.344-1.027.621-1.645.558-.26-.119-.26-.119-.344-.287-.02-.242-.029-.395.072-.616.205-.168.41-.216.662-.293.564-.199.961-.589 1.364-1.013.212-.216.416-.259.713-.199zM6.882 24.545c.174.119.263.206.323.41.034.215.037.354-.047.557a1.04 1.04 0 0 1-.466.344c-.224.01-.36-.058-.556-.165-.176-.176-.281-.321-.287-.573.085-.26.159-.437.401-.573.222-.074.409-.062.631 0z" fill="#2ea9fc"/>
</svg>