<?xml version="1.0" encoding="UTF-8"?>
<svg version="1.1" xmlns="http://www.w3.org/2000/svg" width="566" height="558">
<path d="M0 0 C2.47399924 0.01396771 4.94428185 -0.02040212 7.41796875 -0.05834961 C9.001303 -0.0593001 10.58464197 -0.05744576 12.16796875 -0.05249023 C12.90138489 -0.06574844 13.63480103 -0.07900665 14.39044189 -0.09266663 C18.3427111 -0.02101498 20.04833662 0.44124994 23.15527344 2.96337891 C25.35565497 5.75506733 26.21484375 7.03680011 26.21484375 10.57641602 C24.24524484 15.86323415 24.24524484 15.86323415 21.53442383 17.73950195 C18.37975476 18.87771957 15.64001826 18.79793001 12.2890625 18.77954102 C10.92121446 18.7900926 9.55337528 18.80184958 8.18554688 18.81469727 C6.04587058 18.82498535 3.90744103 18.82646382 1.76782227 18.80639648 C-7.7735349 18.44119433 -7.7735349 18.44119433 -16.1171875 22.36938477 C-18.16169791 24.59476971 -19.9200673 26.86862555 -21.16015625 29.63891602 C-21.45664062 30.26926758 -21.753125 30.89961914 -22.05859375 31.54907227 C-23.6229532 35.91413975 -23.92364273 40.13198322 -23.99047852 44.74365234 C-24.01042374 45.96454056 -24.03036896 47.18542877 -24.05091858 48.4433136 C-24.06763107 49.75180771 -24.08434357 51.06030182 -24.1015625 52.40844727 C-24.12215205 53.76894229 -24.14314903 55.12943121 -24.16453552 56.48991394 C-24.21954972 60.05889924 -24.26904942 63.62794029 -24.31738281 67.19702148 C-24.36774931 70.84371868 -24.42335605 74.4903356 -24.47851562 78.13696289 C-24.58584429 85.28337753 -24.68734468 92.42986427 -24.78515625 99.57641602 C-23.12915405 99.51526611 -23.12915405 99.51526611 -21.43969727 99.45288086 C-17.30820927 99.30339343 -13.1763374 99.16915581 -9.04418945 99.03930664 C-7.26247553 98.98123357 -5.4808878 98.91913295 -3.69946289 98.8527832 C-1.12539696 98.75763431 1.44878858 98.67741681 4.0234375 98.59985352 C4.80818954 98.56765717 5.59294159 98.53546082 6.401474 98.50228882 C19.29668741 98.16007485 19.29668741 98.16007485 23.84690857 101.92782593 C28.12615414 106.88951496 28.39170353 111.27109555 28.453125 117.53344727 C28.46119675 118.31403 28.46926849 119.09461273 28.47758484 119.89884949 C28.49140695 121.55054516 28.50213748 123.20226916 28.51000977 124.85400391 C28.52152961 126.53865966 28.5419817 128.22327891 28.5715332 129.90771484 C28.61430506 132.34571054 28.63039146 134.78262248 28.640625 137.22094727 C28.65813309 137.96802444 28.67564117 138.71510162 28.69367981 139.4848175 C28.6723595 144.66345125 27.50044575 147.59890713 24.21484375 151.57641602 C20.99790011 153.18488783 17.69347153 153.1895075 14.21484375 152.57641602 C11.52379177 150.40067186 9.75951447 148.66575745 8.21484375 145.57641602 C8.1297417 143.61705562 8.10766719 141.65478808 8.1171875 139.69360352 C8.11968506 138.64285645 8.12218262 137.59210938 8.12475586 136.50952148 C8.13385986 135.17034668 8.14296387 133.83117187 8.15234375 132.45141602 C8.18328125 126.07829102 8.18328125 126.07829102 8.21484375 119.57641602 C-2.67515625 119.24641602 -13.56515625 118.91641602 -24.78515625 118.57641602 C-24.78515625 224.50641602 -24.78515625 330.43641602 -24.78515625 439.57641602 C-13.89515625 439.57641602 -3.00515625 439.57641602 8.21484375 439.57641602 C8.13604756 431.9480957 8.13604756 431.9480957 8.03466797 424.32006836 C7.98196586 414.19616337 7.98196586 414.19616337 10.21484375 409.57641602 C12.88077487 407.35480675 14.73950252 406.65732516 18.15234375 406.07641602 C22.49544611 406.78549395 24.1119372 408.47350947 27.21484375 411.57641602 C28.40069738 415.13397689 28.39577646 418.39154405 28.41796875 422.09594727 C28.42366882 422.83213791 28.4293689 423.56832855 28.4352417 424.326828 C28.44468131 425.88437467 28.45122156 427.44194122 28.45507812 428.99951172 C28.46476606 431.36990688 28.4957905 433.73942804 28.52734375 436.10961914 C28.53387616 437.62589006 28.5391257 439.14216715 28.54296875 440.65844727 C28.55531555 441.36177689 28.56766235 442.06510651 28.5803833 442.78974915 C28.55592821 448.2540255 27.19905259 452.17883033 23.71484375 456.38891602 C20.9227749 458.59930385 18.24563077 458.6997134 14.83520508 458.68994141 C13.95451859 458.68986588 13.07383209 458.68979034 12.16645813 458.68971252 C11.2194957 458.68455124 10.27253326 458.67938995 9.296875 458.67407227 C8.32449387 458.67265732 7.35211273 458.67124237 6.3502655 458.66978455 C3.24259371 458.66418418 0.13499379 458.65163164 -2.97265625 458.63891602 C-5.078775 458.63390106 -7.18489488 458.62933815 -9.29101562 458.62524414 C-14.45575689 458.61421463 -19.62044438 458.59694977 -24.78515625 458.57641602 C-24.74056221 464.17796506 -24.67027773 469.77843368 -24.57763672 475.37939453 C-24.54966047 477.27904595 -24.52833165 479.17880873 -24.51416016 481.07861328 C-24.37667272 498.47994042 -22.48537777 513.54785315 -10.03515625 526.82641602 C1.64982648 537.80187418 14.31588255 539.97894965 29.90234375 540.26391602 C34.29546875 540.36704102 38.68859375 540.47016602 43.21484375 540.57641602 C43.21484375 526.71641602 43.21484375 512.85641602 43.21484375 498.57641602 C40.24484375 497.09141602 40.24484375 497.09141602 37.21484375 495.57641602 C34.49349108 492.43639371 33.23774374 490.69851549 33.15234375 486.51391602 C34.47988813 482.84364627 36.23489453 481.05970703 39.21484375 478.57641602 C42.38201342 477.52069279 44.65666378 477.43704087 47.98388672 477.4152832 C49.16876678 477.40567566 50.35364685 477.39606812 51.57443237 477.38616943 C52.85569 477.38191956 54.13694763 477.37766968 55.45703125 477.37329102 C57.43052048 477.36474091 57.43052048 477.36474091 59.44387817 477.35601807 C62.22967922 477.34551883 65.01545149 477.3396691 67.80126953 477.33618164 C71.36452633 477.33069846 74.92740072 477.30667019 78.49053764 477.27820969 C81.89602817 477.25506558 85.30146615 477.25313264 88.70703125 477.24829102 C89.98424042 477.23594421 91.26144958 477.22359741 92.57736206 477.21087646 C93.76854645 477.21387756 94.95973083 477.21687866 96.18701172 477.2199707 C97.2327536 477.21632507 98.27849548 477.21267944 99.35592651 477.20892334 C102.6874873 477.63717085 104.52816346 478.58646886 107.21484375 480.57641602 C109.70643415 484.31380161 109.6727766 486.14973184 109.21484375 490.57641602 C107.4192197 493.32970623 106.16229453 495.10269063 103.21484375 496.57641602 C100.48067885 496.74553962 97.76831006 496.85917194 95.03125 496.92797852 C94.21994125 496.95113129 93.40863251 496.97428406 92.57273865 496.99813843 C90.85544085 497.04578869 89.13807453 497.09102146 87.4206543 497.1340332 C84.79123732 497.20106184 82.16229023 497.27885497 79.53320312 497.35766602 C77.86590285 497.4025888 76.19858544 497.44688062 74.53125 497.49047852 C73.3498922 497.52632553 73.3498922 497.52632553 72.14466858 497.56289673 C68.8771924 497.63798021 66.34139836 497.61860088 63.21484375 496.57641602 C63.21484375 511.09641602 63.21484375 525.61641602 63.21484375 540.57641602 C94.89484375 540.57641602 126.57484375 540.57641602 159.21484375 540.57641602 C158.88484375 526.38641602 158.55484375 512.19641602 158.21484375 497.57641602 C154.91484375 497.57641602 151.61484375 497.57641602 148.21484375 497.57641602 C144.01584704 496.83143273 141.9090778 496.21724745 138.77734375 493.32641602 C136.8664486 489.96324055 136.51512083 488.38601858 137.21484375 484.57641602 C139.29985483 481.15445127 141.32713658 478.87231841 145.21484375 477.57641602 C146.82759344 477.48242556 148.44396066 477.44551839 150.05944347 477.44219494 C151.06370095 477.43773709 152.06795843 477.43327925 153.10264796 477.42868632 C154.20904559 477.42887068 155.31544321 477.42905505 156.45536804 477.429245 C157.62834987 477.42556831 158.8013317 477.42189162 160.00985843 477.41810352 C163.27129504 477.40897513 166.53270208 477.40436664 169.79414928 477.40171421 C173.30962778 477.3978113 176.82509171 477.38823294 180.34056091 477.37950134 C188.83330079 477.35973635 197.32604186 477.3496706 205.81879899 477.34077355 C209.81799521 477.33639064 213.8171901 477.33102383 217.81638527 477.32578468 C231.11037134 477.30877223 244.40435658 477.29427805 257.69835186 477.28703594 C261.14842925 477.28512604 264.59850662 477.28320571 268.04858398 477.28125 C268.90608605 477.28076626 269.76358812 477.28028252 270.64707509 477.27978412 C284.53808644 477.2714838 298.42901167 477.24614693 312.31998541 477.21366932 C326.58087725 477.18059861 340.84172532 477.16258716 355.10265571 477.1593917 C363.10991589 477.15722659 371.11705049 477.14847789 379.1242733 477.12293053 C385.94364808 477.10122333 392.76286679 477.09317315 399.58227219 477.10289731 C403.06078887 477.10744204 406.53898354 477.10554625 410.01745605 477.08613586 C413.79171038 477.06848842 417.56514684 477.07548921 421.33940125 477.08866882 C422.98226727 477.07221495 422.98226727 477.07221495 424.65832251 477.05542868 C431.29147786 477.11137934 435.56018405 478.03719916 441.21484375 481.57641602 C444.3182909 485.26760163 444.59929627 488.27391092 444.63476562 493.015625 C444.65067749 494.29723007 444.66658936 495.57883514 444.6829834 496.89927673 C444.6842507 498.29035385 444.68442749 499.68143232 444.68359375 501.07250977 C444.69070009 502.50830888 444.69839978 503.94410516 444.70666504 505.37989807 C444.720091 508.38501892 444.72168715 511.38987714 444.71582031 514.39501953 C444.70992447 518.2364644 444.74051736 522.07664527 444.78093719 525.91784573 C444.80685036 528.8819705 444.80968846 531.8457923 444.80604553 534.81001472 C444.8077333 536.22575114 444.81734295 537.64150207 444.83518982 539.057127 C444.97471884 551.49200548 444.97471884 551.49200548 441.80273438 555.42822266 C437.74653375 558.79525183 435.6101397 558.70275087 430.36488533 558.70784378 C429.29047831 558.71092273 429.29047831 558.71092273 428.1943661 558.71406388 C425.76970739 558.71976419 423.34510495 558.71827291 420.92044067 558.71685791 C419.17422605 558.71943984 417.42801202 558.72245252 415.68179882 558.72586131 C410.86381306 558.73395533 406.04584219 558.73572222 401.22785044 558.73645878 C396.03878279 558.73830527 390.84972295 558.74585073 385.66065979 558.75259399 C374.30289775 558.76619671 362.94513923 558.77220556 351.5873704 558.77660465 C344.49657904 558.77936482 337.40578906 558.78360186 330.31499863 558.78810883 C310.68765664 558.80030594 291.06031575 558.81060313 271.43297005 558.81398392 C270.17582425 558.81420348 268.91867846 558.81442305 267.62343734 558.81464927 C265.73315056 558.81497669 265.73315056 558.81497669 263.80467618 558.81531072 C261.25096901 558.81575419 258.69726185 558.81620075 256.14355469 558.81665039 C254.24345586 558.81698254 254.24345586 558.81698254 252.3049712 558.81732139 C231.79166699 558.82126709 211.27839836 558.83871219 190.76510789 558.86200991 C169.71059416 558.88572939 148.65609827 558.89818611 127.60157096 558.89935184 C115.77794133 558.90026847 103.954358 558.90601742 92.13074112 558.92417145 C82.0590346 558.93958073 71.98738868 558.94468813 61.91567262 558.93643335 C56.77805041 558.93252928 51.64055019 558.93344451 46.50294304 558.94749069 C41.79484778 558.96024456 37.08696598 558.95901896 32.37887095 558.94689998 C30.68020691 558.94494551 28.98152768 558.94800979 27.28288497 558.95674434 C8.4128694 559.04759175 -7.85839946 555.07246716 -21.72949219 541.68457031 C-23.0930386 540.32679381 -24.43965939 538.95208097 -25.78515625 537.57641602 C-26.45160156 536.94219727 -27.11804688 536.30797852 -27.8046875 535.65454102 C-31.88501241 531.49132012 -34.47675711 526.73018138 -37.09765625 521.57641602 C-37.60474121 520.57928589 -37.60474121 520.57928589 -38.12207031 519.56201172 C-41.67621756 512.24036037 -43.0872247 505.30593307 -43.04521847 497.22571278 C-43.04902414 496.42008765 -43.05282981 495.61446252 -43.0567508 494.78442451 C-43.06703593 492.09187886 -43.06316612 489.39954523 -43.05931091 486.70698547 C-43.06376498 484.75418858 -43.06907958 482.80139349 -43.07517964 480.84860104 C-43.08934968 475.48741388 -43.09102312 470.12628473 -43.09058273 464.76508152 C-43.09223179 458.98099452 -43.10529994 453.19693136 -43.11677551 447.41285706 C-43.13961698 434.76823341 -43.14754509 422.12362655 -43.15260196 409.47898507 C-43.15585972 401.58243005 -43.16238266 393.68587989 -43.16960335 385.78932762 C-43.18916754 363.92193539 -43.20565431 342.05454774 -43.20847988 320.18714619 C-43.20857394 319.48802639 -43.208668 318.7889066 -43.20876491 318.06860135 C-43.20914339 315.23548377 -43.20950738 312.40236618 -43.20986789 309.5692486 C-43.21013961 307.43695349 -43.21041629 305.30465839 -43.21069336 303.17236328 C-43.21078138 302.4677708 -43.2108694 301.76317832 -43.21096009 301.03723456 C-43.21386506 278.90222516 -43.23595854 256.76730311 -43.2722168 234.63232422 C-43.31296878 209.75348288 -43.33663863 184.87470106 -43.33693939 159.99582452 C-43.33752395 146.82691991 -43.34601505 133.65812775 -43.37493706 120.48925209 C-43.39944977 109.27657252 -43.40673439 98.06404643 -43.39168953 86.8513473 C-43.38452053 81.13224133 -43.38537823 75.41343845 -43.40810013 69.69436646 C-43.42872024 64.45404414 -43.42606103 59.21425734 -43.40522528 53.97394063 C-43.40173626 52.08297445 -43.40661534 50.19196938 -43.42092972 48.30105416 C-43.53011095 32.87858421 -41.31836015 20.43122198 -30.1640625 8.90063477 C-21.11767897 0.48102146 -11.81655683 -0.0933508 0 0 Z M178.21484375 496.57641602 C177.60897332 505.97568832 177.04604869 515.34067851 177.08984375 524.76391602 C177.08597656 525.63854492 177.08210937 526.51317383 177.078125 527.41430664 C177.08511946 532.03414549 177.44190123 535.93876091 178.21484375 540.57641602 C198.01484375 540.57641602 217.81484375 540.57641602 238.21484375 540.57641602 C238.23546875 533.50204102 238.25609375 526.42766602 238.27734375 519.13891602 C238.28644775 516.90311768 238.29555176 514.66731934 238.30493164 512.36376953 C238.30785071 510.60262105 238.31039929 508.84147191 238.3125 507.08032227 C238.31761597 506.15699097 238.32273193 505.23365967 238.32800293 504.28234863 C238.32812378 503.4094519 238.32824463 502.53655518 238.32836914 501.63720703 C238.33058975 500.87553726 238.33281036 500.11386749 238.33509827 499.32911682 C238.4057533 497.54830997 238.4057533 497.54830997 237.21484375 496.57641602 C235.37366346 496.48260299 233.52886734 496.45897648 231.68530273 496.46289062 C229.91357948 496.46300392 229.91357948 496.46300392 228.10606384 496.46311951 C226.1779763 496.47086143 226.1779763 496.47086143 224.2109375 496.47875977 C222.9027858 496.48017471 221.59463409 496.48158966 220.24684143 496.48304749 C216.76321516 496.48687192 213.27963036 496.49670155 209.79602051 496.50775146 C206.24357667 496.51796719 202.69112616 496.52254545 199.13867188 496.52758789 C192.16404543 496.5383239 185.18944658 496.55539942 178.21484375 496.57641602 Z M257.21484375 496.57641602 C257.21484375 511.09641602 257.21484375 525.61641602 257.21484375 540.57641602 C277.34484375 540.57641602 297.47484375 540.57641602 318.21484375 540.57641602 C318.23546875 533.50204102 318.25609375 526.42766602 318.27734375 519.13891602 C318.28644775 516.90311768 318.29555176 514.66731934 318.30493164 512.36376953 C318.30785071 510.60262105 318.31039929 508.84147191 318.3125 507.08032227 C318.31761597 506.15699097 318.32273193 505.23365967 318.32800293 504.28234863 C318.32812378 503.4094519 318.32824463 502.53655518 318.32836914 501.63720703 C318.33058975 500.87553726 318.33281036 500.11386749 318.33509827 499.32911682 C318.4057533 497.54830997 318.4057533 497.54830997 317.21484375 496.57641602 C315.34303435 496.48255221 313.46766315 496.45897798 311.59350586 496.46289062 C309.79175148 496.46300392 309.79175148 496.46300392 307.95359802 496.46311951 C305.99269981 496.47086143 305.99269981 496.47086143 303.9921875 496.47875977 C302.64840243 496.48062403 301.30461668 496.48204789 299.96083069 496.48304749 C296.41802098 496.486872 292.87525205 496.4967017 289.3324585 496.50775146 C285.71969159 496.51796702 282.10691791 496.52260012 278.49414062 496.52758789 C271.40100562 496.53779384 264.30798268 496.55736551 257.21484375 496.57641602 Z M336.21484375 497.57641602 C336.11373039 500.07658695 336.07514751 502.54847801 336.08203125 505.04907227 C336.08107452 505.8055455 336.0801178 506.56201874 336.07913208 507.34141541 C336.07844977 508.94961632 336.08030759 510.55781996 336.08447266 512.16601562 C336.08976859 514.60431297 336.08455653 517.04242171 336.078125 519.48071289 C336.07878679 521.04516642 336.08007002 522.60961983 336.08203125 524.17407227 C336.08000702 524.8952272 336.07798279 525.61638214 336.07589722 526.35939026 C336.07904938 527.05628464 336.08220154 527.75317902 336.08544922 528.47119141 C336.08624481 529.07218155 336.08704041 529.67317169 336.08786011 530.29237366 C336.2798252 533.74523106 336.76432583 537.14800514 337.21484375 540.57641602 C348.67134391 540.59953843 360.12783856 540.61733058 371.58435726 540.62822819 C376.90349588 540.63345724 382.22261859 540.64055528 387.54174805 540.65185547 C392.6704836 540.66268357 397.79920381 540.66869268 402.92794991 540.67129326 C404.88925989 540.67314765 406.85056899 540.67676852 408.81187248 540.68214607 C411.54899822 540.68935548 414.28605972 540.690407 417.02319336 540.68994141 C417.84246307 540.69353668 418.66173279 540.69713196 419.50582886 540.70083618 C423.15987813 541.04197101 423.15987813 541.04197101 426.21484375 539.57641602 C426.3035851 536.47390401 426.3300283 533.39373481 426.3125 530.29125977 C426.31108505 529.36044083 426.3096701 528.42962189 426.30821228 527.47059631 C426.30259547 524.4850041 426.29004015 521.49948572 426.27734375 518.51391602 C426.27233091 516.49503689 426.26776763 514.47615659 426.26367188 512.45727539 C426.25262058 507.4969603 426.2353447 502.53670069 426.21484375 497.57641602 C421.7943591 496.4801701 417.4770186 496.43506273 412.95214844 496.44702148 C412.13372467 496.44526917 411.3153009 496.44351685 410.47207642 496.44171143 C407.7769354 496.43732303 405.08186039 496.4402192 402.38671875 496.44360352 C400.51295967 496.44292987 398.63920068 496.44195934 396.76544189 496.44070435 C392.84492152 496.43923168 388.92442397 496.44136907 385.00390625 496.44604492 C379.96746391 496.45175772 374.93107467 496.4484507 369.89463425 496.44247246 C366.02919103 496.43886864 362.16376054 496.44000432 358.29831696 496.44260025 C356.44027958 496.4432692 354.58224106 496.44244219 352.72420502 496.4401207 C350.13609223 496.43759542 347.54806715 496.44143225 344.95996094 496.44702148 C344.1859494 496.44499725 343.41193787 496.44297302 342.61447144 496.44088745 C339.12300244 496.1357317 339.12300244 496.1357317 336.21484375 497.57641602 Z " fill="#000000" transform="translate(42.78515625,-0.576416015625)"/>
<path d="M0 0 C0.70301941 -0.00350607 1.40603882 -0.00701215 2.13036186 -0.01062447 C4.50400934 -0.01998452 6.87741394 -0.01500335 9.25107193 -0.01015663 C10.9630145 -0.01389064 12.67495537 -0.01849116 14.38689351 -0.02388728 C19.10563195 -0.03616476 23.82429975 -0.03585121 28.54305053 -0.03349853 C33.62718797 -0.03309152 38.71130241 -0.04411871 43.79542923 -0.05361366 C53.76433626 -0.0702534 63.73321965 -0.07572465 73.70213941 -0.07683842 C81.80835083 -0.07778801 89.91455444 -0.08189386 98.0207634 -0.08823967 C121.00280732 -0.10586444 143.98483254 -0.11507725 166.96688327 -0.11357872 C168.82679341 -0.11345885 168.82679341 -0.11345885 170.7242775 -0.11333656 C171.9657327 -0.1132548 173.20718789 -0.11317304 174.48626295 -0.1130888 C194.58363503 -0.11227677 214.680932 -0.13139029 234.77828237 -0.1596133 C255.41361158 -0.18836286 276.0489042 -0.20215227 296.68425393 -0.20042574 C308.26932076 -0.19976229 319.85430898 -0.20523418 331.43935776 -0.22678185 C341.30931821 -0.24502144 351.17916448 -0.24931857 361.04913452 -0.235763 C366.0818558 -0.22924584 371.11435821 -0.22907053 376.14705849 -0.2464695 C380.76281196 -0.26226206 385.37817416 -0.25927374 389.99391845 -0.24190123 C391.65559384 -0.23884476 393.31729887 -0.24241218 394.97893927 -0.25362138 C414.23883897 -0.37484332 431.3552554 4.25770644 446.16031265 17.25726891 C446.83707047 17.83992516 447.51382828 18.42258141 448.2110939 19.02289391 C458.53931153 28.56897467 464.87225064 41.45561683 467.16031265 55.25726891 C467.25413247 57.78394118 467.29989229 60.28256133 467.29453373 62.80877972 C467.29688596 63.56445843 467.29923819 64.32013715 467.3016617 65.09871522 C467.30833642 67.63939928 467.30789394 70.18003202 467.30748367 72.72072411 C467.31078327 74.55742285 467.31450904 76.39412088 467.31862515 78.23081797 C467.32864273 83.28513599 467.33236157 88.33944213 467.33501446 93.39376867 C467.33891832 98.84257726 467.34849672 104.29137646 467.35722733 109.74017906 C467.37699113 122.90402692 467.3870586 136.06787555 467.39595512 149.23173454 C467.40033882 155.43248881 467.40570548 161.63324223 467.41094398 167.83399582 C467.42795744 188.45053524 467.44245069 209.06707413 467.44969273 229.6836195 C467.45160259 235.03393428 467.45352127 240.38424906 467.45547867 245.73456383 C467.45571882 246.39925193 467.45595897 247.06394004 467.4562064 247.74877021 C467.46409363 269.28385373 467.4875129 290.81888206 467.52003461 312.35394149 C467.55437517 335.13512033 467.57404676 357.91626841 467.57733697 380.6974737 C467.57950039 393.11029647 467.58822442 405.52303818 467.61379814 417.93583679 C467.63553244 428.50948802 467.64354215 439.0830385 467.63383136 449.65670953 C467.62929439 455.04803963 467.63113783 460.43916196 467.6505928 465.83046341 C467.66828054 470.77493252 467.66718134 475.71904315 467.65169551 480.66351636 C467.64932792 482.44359035 467.65359846 484.22368953 467.66552416 486.00372515 C467.81164523 509.27231319 461.59220747 528.1242294 445.23062515 545.28070641 C436.46655682 553.60838959 424.5779124 558.80656297 412.4689064 558.58539391 C409.13337235 558.11130785 407.39611906 556.70944368 405.16031265 554.25726891 C403.71600411 551.36865181 403.7834276 549.46079189 404.16031265 546.25726891 C407.77364196 541.79415087 411.5153905 540.11575834 416.84781265 538.44476891 C428.19499895 534.50532941 436.40222288 527.96760891 442.16031265 517.25726891 C446.17168764 507.72374133 448.27478555 499.27901512 448.4767189 489.01898766 C448.50789055 487.69783707 448.50789055 487.69783707 448.53969193 486.34999657 C448.60485202 483.54833011 448.66391586 480.74657333 448.72281265 477.94476891 C448.7660298 476.04046285 448.8096451 474.13616579 448.85367203 472.23187828 C448.96049888 467.57376672 449.06186005 462.91556468 449.16031265 458.25726891 C448.59734482 458.26837196 448.03437698 458.27947502 447.45434952 458.29091454 C441.5819222 458.40174368 435.70979311 458.47703318 429.83658218 458.53192711 C427.64635521 458.55703325 425.45621171 458.59112527 423.26626968 458.63446617 C420.11355343 458.69528798 416.96194713 458.72351814 413.80875015 458.74555016 C412.83352402 458.77135658 411.85829788 458.79716301 410.85351944 458.82375145 C406.37298703 458.82558968 403.16939819 458.77276642 399.57974625 455.90863609 C393.49564022 449.24129084 394.85916899 440.33945 394.91031265 431.81976891 C394.90257828 430.53521812 394.8948439 429.25066734 394.88687515 427.92719078 C394.90033893 421.39389287 394.99808931 415.45765151 397.16031265 409.25726891 C400.01261467 406.64944992 401.82831517 406.29876859 405.66031265 405.81976891 C409.72941626 406.32840686 411.29376335 407.3907196 414.16031265 410.25726891 C415.54340047 413.02344453 415.27241462 415.2674489 415.2579689 418.35883141 C415.25547134 419.45018394 415.25297379 420.54153648 415.25040054 421.66596031 C415.23674454 423.75303307 415.23674454 423.75303307 415.22281265 425.88226891 C415.20218765 430.29601891 415.18156265 434.70976891 415.16031265 439.25726891 C426.38031265 439.25726891 437.60031265 439.25726891 449.16031265 439.25726891 C449.16031265 333.32726891 449.16031265 227.39726891 449.16031265 118.25726891 C437.94031265 118.25726891 426.72031265 118.25726891 415.16031265 118.25726891 C415.27871158 127.24716888 415.27871158 127.24716888 415.43057632 136.23651695 C415.44181534 137.92321495 415.44181534 137.92321495 415.4532814 139.64398766 C415.46899185 140.79085045 415.4847023 141.93771324 415.50088882 143.11932945 C415.12206732 146.60964688 414.24873167 148.46371889 412.16031265 151.25726891 C408.66821718 153.00331664 404.95998782 152.96601661 401.16031265 152.25726891 C397.98868906 149.91011889 396.40296631 146.98522989 395.16031265 143.25726891 C394.95416599 138.91571624 394.97451387 134.57163042 394.97500992 130.22577477 C394.97283815 128.09478909 394.95471368 125.9643339 394.93570328 123.83344078 C394.8553983 106.80753535 394.8553983 106.80753535 399.57999039 101.58002281 C403.90654776 98.15766324 408.51416576 98.6288824 413.80875015 98.76898766 C415.32754272 98.77959976 415.32754272 98.77959976 416.87701797 98.79042625 C420.09721483 98.81831811 423.31564522 98.88104883 426.53531265 98.94476891 C428.72408955 98.96985842 430.91289382 98.99267044 433.1017189 99.01312828 C438.45518177 99.06812731 443.80762099 99.15170116 449.16031265 99.25726891 C449.11570109 93.79812157 449.04539982 88.340081 448.95279312 82.88153648 C448.92482581 81.03038984 448.90349269 79.17912916 448.88931656 77.32782555 C448.75401813 60.64552886 447.08519344 46.17043232 435.31656265 33.22992516 C424.19566678 22.81547963 411.06917455 19.42664416 396.23062515 18.68305016 C395.45082291 18.64071251 394.67102066 18.59837486 393.86758804 18.55475426 C391.96535411 18.4519899 390.06285685 18.35411939 388.16031265 18.25726891 C388.18029816 19.24872665 388.18029816 19.24872665 388.20068741 20.26021385 C388.3336771 27.15462297 388.42402736 34.04866636 388.4899025 40.94403648 C388.52003086 43.51547616 388.56094208 46.08681344 388.61294937 48.65790367 C388.68593168 52.35925143 388.71981054 56.05923786 388.74625015 59.76117516 C388.77721786 60.90623024 388.80818558 62.05128532 388.84009171 63.23103905 C388.8427003 69.45105349 388.37016927 73.35265116 384.03815079 77.9700222 C378.07993861 82.05434068 371.41746118 81.53919747 364.50087357 81.51123619 C363.31912821 81.51435617 362.13738286 81.51747615 360.91982704 81.52069068 C357.64793057 81.52728085 354.37618286 81.52491821 351.10429013 81.51871824 C347.57256161 81.51419053 344.0408531 81.52117907 340.50912857 81.52667809 C333.59402277 81.53557004 326.67896039 81.53365104 319.76385289 81.5278528 C314.14427891 81.52333591 308.5247171 81.52272353 302.90514183 81.52490044 C301.70540756 81.52536014 301.70540756 81.52536014 300.48143624 81.52582912 C298.8566211 81.52646857 297.23180596 81.527117 295.60699082 81.5277743 C280.37245646 81.53347692 265.13794616 81.52692058 249.90341575 81.51617357 C236.82961217 81.50723641 223.75584411 81.50879159 210.68204117 81.51801109 C195.50044055 81.52871197 180.31886102 81.53292941 165.13725716 81.52678657 C163.51872735 81.52614946 161.90019753 81.52552072 160.28166771 81.52490044 C159.48531333 81.52459189 158.68895895 81.52428333 157.86847262 81.52396543 C152.25470762 81.52223807 146.640956 81.52515444 141.02719307 81.52985954 C134.18733522 81.53546627 127.34752328 81.53395625 120.50767069 81.52329805 C117.01744961 81.5180388 113.52730511 81.51598893 110.03708458 81.52259636 C106.25556869 81.52803892 102.47427004 81.52123311 98.6927681 81.51123619 C97.0340274 81.51792836 97.0340274 81.51792836 95.34177679 81.52475572 C93.82234223 81.51693247 93.82234223 81.51693247 92.27221203 81.50895119 C91.39944966 81.50862648 90.5266873 81.50830178 89.62747759 81.50796723 C85.18773693 81.05682773 82.74344372 79.91712775 79.78531265 76.56976891 C77.77269034 72.46711572 77.79536165 70.59299563 79.16031265 66.25726891 C84.16031265 62.25726891 84.16031265 62.25726891 103.16031265 62.25726891 C103.16031265 47.73726891 103.16031265 33.21726891 103.16031265 18.25726891 C71.48031265 18.25726891 39.80031265 18.25726891 7.16031265 18.25726891 C7.16031265 32.77726891 7.16031265 47.29726891 7.16031265 62.25726891 C18.78312584 62.09925593 18.78312584 62.09925593 30.4051857 61.89691734 C31.86912238 61.88522796 33.33307211 61.87503672 34.7970314 61.86664391 C35.54875626 61.84618004 36.30048111 61.82571617 37.0749855 61.80463219 C40.76530435 61.80218948 42.94420518 62.12516263 46.12051773 64.06683922 C48.93706941 67.09138759 49.16031265 69.16825656 49.16031265 73.25726891 C47.41952746 77.5125216 45.19384606 79.20707388 41.16031265 81.25726891 C38.549366 81.63821983 38.549366 81.63821983 35.73086929 81.6454525 C34.13880409 81.65963722 34.13880409 81.65963722 32.51457596 81.67410851 C31.37802063 81.66803581 30.2414653 81.66196312 29.0704689 81.65570641 C27.89318726 81.65857658 26.71590561 81.66144676 25.50294876 81.66440392 C23.01576633 81.66644341 20.52856782 81.66092164 18.04141617 81.64838219 C14.24018724 81.63234222 10.44002395 81.64822844 6.63882828 81.66742516 C4.22020614 81.66544242 1.80158467 81.66159813 -0.6170311 81.65570641 C-2.31882774 81.66481544 -2.31882774 81.66481544 -4.05500412 81.67410851 C-10.71251195 81.61496817 -15.56547467 81.20406031 -20.71468735 76.56976891 C-22.38752595 73.13115622 -22.53091378 70.00525222 -21.83968735 66.25726891 C-20.15218735 63.75726891 -20.15218735 63.75726891 -17.83968735 62.25726891 C-15.1951561 62.16351891 -15.1951561 62.16351891 -12.83968735 62.25726891 C-12.8496801 61.24035721 -12.8496801 61.24035721 -12.85987473 60.20290184 C-12.92624888 53.14644679 -12.97149681 46.09008044 -13.00448227 39.03339195 C-13.01956792 36.39989177 -13.04003901 33.7664167 -13.06600571 31.13300133 C-13.10239753 27.34753787 -13.11941625 23.56240663 -13.1326561 19.77680016 C-13.14813995 18.59954872 -13.16362381 17.42229729 -13.17957687 16.20937157 C-13.17980347 15.10860786 -13.18003006 14.00784416 -13.18026352 12.87372398 C-13.18692535 11.90775795 -13.19358719 10.94179192 -13.2004509 9.94655418 C-12.76695968 6.71512587 -11.75814911 4.87549652 -9.83968735 2.25726891 C-6.16243532 -0.19423244 -4.38782233 0.00491602 0 0 Z M121.16031265 19.25726891 C121.05917596 22.01047683 121.02062179 24.73804228 121.02750015 27.49164391 C121.02654343 28.3218203 121.0255867 29.15199669 121.02460098 30.00732994 C121.02391888 31.76935463 121.02577527 33.53138182 121.02994156 35.29340172 C121.03526252 37.98193646 121.03001162 40.67030208 121.0235939 43.35883141 C121.02425521 45.06976927 121.02553745 46.78070704 121.02750015 48.49164391 C121.02547592 49.29390404 121.02345169 50.09616417 121.02136612 50.92273521 C121.02451828 51.67991844 121.02767044 52.43710167 121.03091812 53.21722984 C121.03171371 53.8781765 121.03250931 54.53912315 121.03332901 55.2200985 C121.14646696 57.77187813 121.14646696 57.77187813 122.16031265 62.25726891 C141.96031265 62.25726891 161.76031265 62.25726891 182.16031265 62.25726891 C182.16031265 47.73726891 182.16031265 33.21726891 182.16031265 18.25726891 C174.36167325 18.23632359 166.56313516 18.21628548 158.76449203 18.20551872 C155.13315508 18.20022895 151.5018413 18.19315534 147.87051773 18.18182945 C144.37571291 18.17099706 140.88093062 18.16499133 137.38611031 18.16239166 C135.39791876 18.1596334 133.40973634 18.15182203 131.42155838 18.1439724 C129.619804 18.1438591 129.619804 18.1438591 127.78165054 18.14374352 C126.7179776 18.1415229 125.65430466 18.13930229 124.5583992 18.13701439 C122.20787851 17.98610128 122.20787851 17.98610128 121.16031265 19.25726891 Z M201.16031265 18.25726891 C201.16031265 32.77726891 201.16031265 47.29726891 201.16031265 62.25726891 C221.29031265 62.25726891 241.42031265 62.25726891 262.16031265 62.25726891 C262.16031265 47.73726891 262.16031265 33.21726891 262.16031265 18.25726891 C242.03031265 18.25726891 221.90031265 18.25726891 201.16031265 18.25726891 Z M280.16031265 19.25726891 C280.05915971 22.17925284 280.02062466 25.07709644 280.02750015 27.99945641 C280.02654343 28.87876823 280.0255867 29.75808006 280.02460098 30.6640377 C280.023919 32.52861159 280.02577457 34.39318783 280.02994156 36.25775719 C280.03527687 39.11311759 280.03000378 41.96831977 280.0235939 44.82367516 C280.02425493 46.63226925 280.0255366 48.44086325 280.02750015 50.24945641 C280.02547592 51.10578667 280.02345169 51.96211693 280.02136612 52.84439659 C280.03474308 56.22825587 280.08286132 59.02491491 281.16031265 62.25726891 C292.61681281 62.28039132 304.07330746 62.29818347 315.52982616 62.30908108 C320.84896478 62.31431013 326.16808749 62.32140817 331.48721695 62.33270836 C336.6159525 62.34353646 341.74467271 62.34954557 346.87341881 62.35214615 C348.83472879 62.35400054 350.7960379 62.35762141 352.75734138 62.36299896 C355.49446713 62.37020837 358.23152863 62.37125989 360.96866226 62.3707943 C361.78793198 62.37438957 362.60720169 62.37798485 363.45129776 62.38168907 C367.10534703 62.7228239 367.10534703 62.7228239 370.16031265 61.25726891 C370.25300264 59.90631908 370.27778592 58.550598 370.27383804 57.19647789 C370.27376251 56.33566109 370.27368698 55.47484428 370.27360916 54.58794212 C370.26586723 53.18482529 370.26586723 53.18482529 370.2579689 51.75336266 C370.25655396 50.80034767 370.25513901 49.84733269 370.25368118 48.86543846 C370.24806417 45.80851725 370.23550881 42.75166814 370.22281265 39.69476891 C370.21779984 37.62771267 370.21323656 35.56065529 370.20914078 33.49359703 C370.19808922 28.41479303 370.1808132 23.33604321 370.16031265 18.25726891 C358.57342863 18.23414663 346.98655006 18.21635441 335.39964771 18.20545673 C330.01997503 18.20022765 324.64031808 18.19312956 319.26065445 18.18182945 C314.07356422 18.17100146 308.88648916 18.16499226 303.6993885 18.16239166 C301.71574985 18.16053725 299.73211207 18.15691634 297.74847984 18.15153885 C294.9802213 18.14432958 292.21202627 18.14327791 289.44375992 18.14374352 C288.61513947 18.14014824 287.78651901 18.13655296 286.93278885 18.13284874 C283.24528638 17.78608711 283.24528638 17.78608711 280.16031265 19.25726891 Z " fill="#000000" transform="translate(98.83968734741211,-0.25726890563964844)"/>
<path d="M0 0 C35.09355292 -0.89484669 74.68670763 9.91553895 101.7109375 33.16015625 C104.45920302 36.21694899 105.61356489 37.55428223 106.2734375 41.66015625 C105.56040138 46.09682543 104.26140985 47.47757714 100.7109375 50.16015625 C98.3984375 51.22265625 98.3984375 51.22265625 95.7109375 51.16015625 C90.77164707 49.20147211 86.92597718 46.61890267 82.7109375 43.41015625 C53.85739274 21.99883614 14.89589034 16.4854818 -19.9765625 21.22265625 C-59.9608276 27.4003345 -95.06617625 49.83497242 -118.96337891 82.29541016 C-130.57647247 98.63073403 -138.43594903 116.7713185 -143.2890625 136.16015625 C-143.55807373 137.21928223 -143.55807373 137.21928223 -143.83251953 138.29980469 C-152.53377962 174.40096123 -145.05018816 215.15457735 -125.90942383 246.64355469 C-121.55260067 253.55229673 -116.50987554 259.89155364 -111.2890625 266.16015625 C-110.59941406 267.00449219 -109.90976563 267.84882813 -109.19921875 268.71875 C-104.1714183 274.6513489 -98.42401882 279.40865317 -92.2890625 284.16015625 C-90.86400391 285.29130859 -90.86400391 285.29130859 -89.41015625 286.4453125 C-56.42788683 312.04939116 -15.06170763 320.5118245 25.984375 315.50390625 C31.31035382 314.69928531 36.50879303 313.54980457 41.7109375 312.16015625 C42.57541504 311.92941406 43.43989258 311.69867188 44.33056641 311.4609375 C63.03289042 306.25033976 80.80363928 297.67899232 95.7109375 285.16015625 C96.88275987 284.20175857 98.05463794 283.24342898 99.2265625 282.28515625 C127.85509833 258.59073408 147.40661386 224.60600699 151.54541016 187.39404297 C152.71559362 171.60174407 152.41531256 155.59019094 148.7109375 140.16015625 C148.54464844 139.45246094 148.37835938 138.74476563 148.20703125 138.015625 C145.17117406 125.53487879 140.00139683 114.42704038 133.4921875 103.39453125 C131.53919766 99.84831286 131.10654631 98.13186978 131.7109375 94.16015625 C132.97382409 91.38180576 134.0631546 89.66912853 136.4609375 87.78515625 C139.99902081 86.80235533 142.18105537 87.12553563 145.7109375 88.16015625 C163.28114692 103.48736021 169.71068444 136.93652368 171.56591797 159.02490234 C174.56159065 203.13290443 159.29000291 245.3843963 130.55859375 278.65234375 C117.77694701 293.07381511 104.41843623 304.55692433 87.7109375 314.16015625 C87.10362793 314.51964355 86.49631836 314.87913086 85.87060547 315.24951172 C67.67539565 325.95121078 47.48800554 331.90471838 26.7109375 335.16015625 C24.90689453 335.44826172 24.90689453 335.44826172 23.06640625 335.7421875 C16.75104035 336.4846676 10.3738846 336.40453959 4.0234375 336.41015625 C2.9937384 336.41116837 2.9937384 336.41116837 1.9432373 336.41220093 C-10.00637395 336.39362406 -21.56840335 335.5844501 -33.2890625 333.16015625 C-34.44559326 332.9266748 -34.44559326 332.9266748 -35.62548828 332.68847656 C-75.76019138 324.23817765 -111.09660418 299.91608675 -135.2890625 267.16015625 C-135.71864258 266.58023926 -136.14822266 266.00032227 -136.59082031 265.40283203 C-162.07578684 230.47135943 -171.38374125 185.22506254 -164.76733398 142.73754883 C-159.0020465 109.81346908 -144.10898739 78.77527154 -120.8046875 54.72705078 C-119.75637198 53.64327356 -118.7151345 52.55262143 -117.6796875 51.45654297 C-86.65912838 18.63309505 -44.64338496 2.17384654 0 0 Z " fill="#000000" transform="translate(284.2890625,103.83984375)"/>
<path d="M0 0 C1.2686792 0.00491455 2.5373584 0.0098291 3.84448242 0.01489258 C13.75852391 0.13795822 23.19011507 0.90453372 32.8125 3.3125 C33.81313477 3.56193359 33.81313477 3.56193359 34.83398438 3.81640625 C50.07017645 7.78339936 71.57563033 14.99566772 80.8125 28.3125 C81.375 31.8125 81.375 31.8125 80.8125 35.3125 C78.45715286 38.49914613 76.70303938 39.97607401 73 41.375 C67.71461765 41.27136505 63.97572995 38.65792351 59.5703125 35.91796875 C33.93827722 19.99249109 3.7157797 15.87263515 -25.546875 22.37890625 C-57.01746009 30.44915286 -83.50708984 48.70473395 -100.20825195 76.79711914 C-105.5863279 86.22882709 -109.35171789 95.84902289 -112.1875 106.3125 C-112.52652344 107.51132813 -112.86554688 108.71015625 -113.21484375 109.9453125 C-120.39940258 140.60384464 -114.4542227 172.70027472 -98.1875 199.3125 C-95.3599481 203.4630349 -92.35162517 207.41365424 -89.1875 211.3125 C-88.48882812 212.17746094 -87.79015625 213.04242188 -87.0703125 213.93359375 C-72.97866343 230.47708652 -53.66492573 240.92183672 -33.1875 247.3125 C-32.48882812 247.5384082 -31.79015625 247.76431641 -31.0703125 247.99707031 C-2.48017161 256.91095045 30.55517732 251.91131063 56.80273438 238.27880859 C63.95427451 234.32114172 70.5659677 229.56859114 76.8125 224.3125 C77.60011719 223.65894531 78.38773438 223.00539063 79.19921875 222.33203125 C100.89797897 203.63090195 115.51804977 177.1248287 117.8125 148.3125 C117.96893098 144.56133461 118.00215544 140.8166547 118 137.0625 C118.00136963 136.04414063 118.00273926 135.02578125 118.00415039 133.9765625 C117.96347842 127.69399833 117.45155628 121.78999842 116.20703125 115.62109375 C115.40017834 110.89980592 116.15964515 107.53986713 118.375 103.375 C121.37394736 100.83742916 123.00521593 100.78426119 126.8125 100.84375 C129.43967078 101.45949315 130.84210554 102.4792849 132.8125 104.3125 C143.68668501 124.88645805 138.02419235 156.96867753 131.56738281 178.02539062 C125.06308527 197.73181346 113.90444751 214.24947277 99.8125 229.3125 C98.966875 230.22386719 98.12125 231.13523437 97.25 232.07421875 C81.58398274 248.40057685 60.42725192 260.03431794 38.6875 266 C37.04890015 266.45161499 37.04890015 266.45161499 35.37719727 266.91235352 C26.52238082 269.27246534 17.95564445 270.81578994 8.8125 271.3125 C7.55179688 271.38210938 6.29109375 271.45171875 4.9921875 271.5234375 C-32.03757224 272.49593624 -66.97486102 259.20838728 -94.1875 234.3125 C-94.99703125 233.57386719 -95.8065625 232.83523438 -96.640625 232.07421875 C-121.12559811 208.65939307 -134.63610674 174.86137932 -136.1875 141.3125 C-136.22875 140.54421875 -136.27 139.7759375 -136.3125 138.984375 C-137.31306686 102.21354287 -121.97132715 67.7832291 -97.1875 41.3125 C-96.12595703 40.14654297 -96.12595703 40.14654297 -95.04296875 38.95703125 C-78.9391066 21.97169454 -57.67255242 11.30586626 -35.5625 4.5625 C-34.91861328 4.36358154 -34.27472656 4.16466309 -33.61132812 3.9597168 C-22.57831465 0.76096625 -11.43915648 -0.05283498 0 0 Z " fill="#000000" transform="translate(286.1875,136.6875)"/>
<path d="M0 0 C2.83923823 1.1617815 5.42626142 2.68869281 8.0625 4.25 C8.84415527 4.69891602 9.62581055 5.14783203 10.43115234 5.61035156 C12.10408217 6.57226142 13.77392933 7.53954919 15.44091797 8.51171875 C17.95273622 9.97251288 20.47561185 11.41169091 23.00390625 12.84375 C33.39120739 18.7325822 43.71545466 24.72812226 54.01538086 30.76831055 C58.99092467 33.68166229 63.98012358 36.56328581 69.01171875 39.37890625 C69.96755859 39.91580078 70.92339844 40.45269531 71.90820312 41.00585938 C73.70632752 42.01296067 75.50819305 43.01342354 77.31445312 44.00585938 C87.65601111 49.80802638 87.65601111 49.80802638 90 55.375 C90 59.04811208 88.95729805 61.94209362 87 65 C84.72714354 66.96235695 82.21338839 68.2957082 79.5625 69.6875 C78.02389076 70.54274556 76.48616672 71.39958508 74.94921875 72.2578125 C73.73758057 72.92345215 73.73758057 72.92345215 72.50146484 73.60253906 C68.23199627 75.98770772 64.05872461 78.53092134 59.875 81.0625 C58.16821903 82.08895795 56.46119179 83.11500652 54.75390625 84.140625 C53.53405029 84.87442383 53.53405029 84.87442383 52.28955078 85.62304688 C49.13201926 87.52201017 45.97230977 89.41733116 42.8125 91.3125 C42.24378174 91.65385986 41.67506348 91.99521973 41.08911133 92.34692383 C36.99317415 94.80536356 32.895313 97.26057516 28.796875 99.71484375 C26.55208129 101.05989242 24.30728963 102.40494452 22.0625 103.75 C20.46208862 104.70773315 20.46208862 104.70773315 18.8293457 105.68481445 C13.73208611 108.73996564 8.65620029 111.80785539 3.67993164 115.05737305 C0.73401352 116.71035806 -1.65617749 117.06192264 -5 117 C-8.62139242 115.29179603 -10.49707043 114.12041147 -12.15179443 110.43406677 C-13.2246202 106.09059692 -13.27964375 102.07379739 -13.25878906 97.61743164 C-13.26404602 96.22846931 -13.26404602 96.22846931 -13.26940918 94.81144714 C-13.27818689 91.76093981 -13.2723908 88.71066581 -13.265625 85.66015625 C-13.2669729 83.5331569 -13.26891448 81.40615785 -13.27142334 79.27915955 C-13.27436934 74.82482973 -13.27009419 70.37058023 -13.26074219 65.91625977 C-13.24935497 60.21563596 -13.25590589 54.51520065 -13.26788712 48.81458378 C-13.27512575 44.42303557 -13.27280845 40.03153179 -13.26763153 35.63998222 C-13.26630022 33.53849706 -13.26792454 31.43700782 -13.27259064 29.33552742 C-13.27768799 26.3942311 -13.2699002 23.45323681 -13.25878906 20.51196289 C-13.26486176 19.21734634 -13.26486176 19.21734634 -13.27105713 17.89657593 C-13.22870034 11.82272547 -13.05013916 6.22098409 -8.75 1.5625 C-5.35844354 -0.36452071 -3.87455188 -0.42243063 0 0 Z " fill="#000000" transform="translate(252,214)"/>
<path d="M0 0 C3.26476465 2.85666907 4.75982857 4.71908571 5.5625 9 C4.85300473 12.78397478 3.31948135 14.9515388 1 18 C0.46375 18.78375 -0.0725 19.5675 -0.625 20.375 C-1.07875 20.91125 -1.5325 21.4475 -2 22 C-2.66 22 -3.32 22 -4 22 C-4.19722656 22.55816406 -4.39445312 23.11632812 -4.59765625 23.69140625 C-6.57125188 26.94041743 -9.3724716 28.80161295 -12.4375 30.9375 C-13.05987549 31.37698975 -13.68225098 31.81647949 -14.32348633 32.26928711 C-23.0173431 38.25957324 -32.22532009 43.09637094 -43 42 C-47.54054054 39.91891892 -47.54054054 39.91891892 -49 37 C-49.34609305 32.77766476 -49.50309738 30.10681424 -47.75 26.25 C-44.17492858 23.32494157 -40.59203872 22.48045798 -36.21484375 21.1328125 C-26.38240508 17.66816218 -19.46045377 10.86328867 -12.43359375 3.4765625 C-8.73271477 -0.28966105 -5.18396239 -1.04075727 0 0 Z " fill="#000000" transform="translate(357,315)"/>
<path d="M0 0 C3.03826537 2.06860621 4.58906769 3.59108921 5.62890625 7.15625 C6.22279597 10.90713243 6.27651201 13.33054987 4.8125 16.875 C2.33010228 19.78539732 0.27969593 21.51579073 -3.3125 22.875 C-7.21396137 23.05646332 -9.59672601 21.85633126 -13 20 C-16.07687285 16.92312715 -17.89501837 14.40922851 -18 10 C-16.51508423 5.46709922 -15.23330523 2.38123419 -11 0 C-7.12961004 -1.29012999 -3.87625077 -1.0729583 0 0 Z " fill="#000000" transform="translate(120,428)"/>
</svg>
